<?xml version="1.0" encoding="UTF-8" standalone="no"?>
<!-- Created with Inkscape (http://www.inkscape.org/) -->

<svg
   xmlns:dc="http://purl.org/dc/elements/1.1/"
   xmlns:cc="http://creativecommons.org/ns#"
   xmlns:rdf="http://www.w3.org/1999/02/22-rdf-syntax-ns#"
   xmlns:svg="http://www.w3.org/2000/svg"
   xmlns="http://www.w3.org/2000/svg"
   xmlns:sodipodi="http://sodipodi.sourceforge.net/DTD/sodipodi-0.dtd"
   xmlns:inkscape="http://www.inkscape.org/namespaces/inkscape"
   width="210mm"
   height="297mm"
   viewBox="0 0 210 297"
   version="1.1"
   id="svg8"
   inkscape:version="0.92.4 (5da689c313, 2019-01-14)"
   sodipodi:docname="disegno.svg">
  <title
     id="title2374">BFast_Vettoriale</title>
  <defs
     id="defs2" />
  <sodipodi:namedview
     id="base"
     pagecolor="#ffffff"
     bordercolor="#666666"
     borderopacity="1.0"
     inkscape:pageopacity="0.0"
     inkscape:pageshadow="2"
     inkscape:zoom="6.2810001"
     inkscape:cx="454.0974"
     inkscape:cy="629.67136"
     inkscape:document-units="mm"
     inkscape:current-layer="layer1"
     showgrid="false"
     inkscape:window-width="1920"
     inkscape:window-height="1018"
     inkscape:window-x="-8"
     inkscape:window-y="-8"
     inkscape:window-maximized="1" />
  <metadata
     id="metadata5">
    <rdf:RDF>
      <cc:Work
         rdf:about="">
        <dc:format>image/svg+xml</dc:format>
        <dc:type
           rdf:resource="http://purl.org/dc/dcmitype/StillImage" />
        <dc:title>BFast_Vettoriale</dc:title>
      </cc:Work>
    </rdf:RDF>
  </metadata>
  <g
     inkscape:label="Livello 1"
     inkscape:groupmode="layer"
     id="layer1">
    <g
       id="g1041"
       transform="translate(12.343829,-13.084459)">
      <g
         id="g929">
        <path
           style="fill:#ff78e4;fill-opacity:0.98120303;stroke:#970096;stroke-width:0.065;stroke-linecap:butt;stroke-linejoin:miter;stroke-miterlimit:4;stroke-dasharray:none;stroke-dashoffset:0;stroke-opacity:1"
           d="m 82.942148,132.95833 4.653833,-0.21261 0.07087,0.47247 0.519715,-0.0236 1.015813,1.01582 0.968562,0.21261 -0.02363,0.96856 c 0,0 1.535528,0.59059 0.637834,1.9135 -0.897694,1.32292 -0.09449,0.47248 -1.346539,2.03163 -1.252048,1.55915 -2.055246,2.33872 -1.063059,2.26785 0.992188,-0.0709 2.574962,0.51972 2.811198,1.37017 0.236236,0.85044 0.779577,4.016 -0.283482,5.71689 -1.063059,1.70089 -3.000187,0.73233 -4.252233,0.85044 -1.252045,0.11812 -0.921316,0.42523 -0.921316,0.42523 0,0 0.165365,0.4016 -0.259858,0.35435 -0.425225,-0.0472 -0.212614,0.47247 -0.212614,0.47247 0,0 -0.897691,0.28348 -0.944938,-0.25986 -0.04725,-0.54334 -0.330729,0.25986 -0.118118,0.56696 0.212611,0.30711 -0.897694,0.63784 -0.921319,0.18899 -0.02363,-0.44884 0.04725,-1.39378 -0.992187,-1.39378 -1.039434,0 -2.291474,-0.77959 -2.291474,-0.77959 l 0.165362,-5.85862 -0.377976,0.0709 v -7.0398 c 0,0 3.472664,1.51192 1.39379,-2.24425 -1.481426,-1.06764 2.979352,0.17792 1.771756,-1.0867 z"
           id="path890"
           inkscape:connector-curvature="0"
           sodipodi:nodetypes="ccccccccsccscccccccsccccccc" />
        <path
           style="fill:#d45500;stroke:#690100;stroke-width:0.065;stroke-linecap:butt;stroke-linejoin:miter;stroke-miterlimit:4;stroke-dasharray:none;stroke-opacity:1"
           d="m 78.666294,135.20257 0.04725,1.46465 0.212611,0.18899 -0.07087,2.90569 0.04725,4.016 v 4.03962 l 1.086681,1.29929 0.165364,-5.85863 -0.377976,0.0709 v -7.0398 c 0,0 0.307105,-0.14175 0.850445,0.25985 0.543343,0.4016 1.063059,-0.33072 1.063059,-0.33072 0,0 0.307107,-0.82683 -0.07087,-1.41741 -0.377976,-0.59059 -0.448845,-0.75596 -0.448845,-0.75596 0,0 0.992188,-0.0709 1.01581,0.14174 0.02363,0.21261 0.566965,0.16537 0.661458,0.0473 0.09449,-0.11812 0.354354,-0.59059 0.212611,-0.87407 -0.14174,-0.28348 -0.04725,-0.35435 -0.566962,-0.61421 -0.519718,-0.25986 -0.543343,0.56696 -0.543343,0.56696 0,0 -0.897692,0.23624 -1.748139,0.0236 -0.850445,-0.21261 0.4016,0.77958 0.4016,0.77958 0,0 0.73233,0.73233 0.354352,1.22842 -0.377976,0.49609 -0.87407,0.25986 -1.204799,0.0236 -0.330729,-0.23624 -1.086681,-0.16537 -1.086681,-0.16537 z"
           id="path888"
           inkscape:connector-curvature="0" />
        <path
           style="fill:#ffffff;stroke:#970096;stroke-width:0.065;stroke-linecap:butt;stroke-linejoin:miter;stroke-miterlimit:4;stroke-dasharray:none;stroke-opacity:1"
           d="m 83.320127,135.0372 -0.02363,1.84263 -0.377976,0.0236 0.04725,2.33873 0.236236,0.23623 -0.02363,0.51972 c 0,0 2.787576,0.4016 3.354538,-1.63002 0.566965,-2.03162 -0.02363,-2.8112 -1.08668,-3.51991 -1.063059,-0.7087 -2.126115,0.18899 -2.126115,0.18899 z"
           id="path893"
           inkscape:connector-curvature="0" />
        <path
           style="fill:#d45500;fill-opacity:1;stroke:#6a0100;stroke-width:0.065;stroke-linecap:butt;stroke-linejoin:miter;stroke-miterlimit:4;stroke-dasharray:none;stroke-opacity:1"
           d="m 83.320127,135.0372 0.968563,-0.42522 0.04725,1.70089 -0.448847,0.44885 0.0945,3.26004 -0.803209,-0.0237 0.02363,-0.51972 -0.236236,-0.23623 -0.04725,-2.33873 0.377975,-0.0236 z"
           id="path895"
           inkscape:connector-curvature="0" />
        <path
           style="fill:#f9f9f9;stroke:#970096;stroke-width:0.065;stroke-linecap:butt;stroke-linejoin:miter;stroke-miterlimit:4;stroke-dasharray:none;stroke-opacity:1"
           d="m 83.202009,144.085 0.09449,3.87426 c 0,0 1.771764,-0.0709 2.267858,-0.21261 0.496094,-0.14174 1.630021,-0.18899 1.771764,-1.88988 0.141739,-1.70089 -1.677271,-1.88988 -1.984375,-1.93713 -0.307108,-0.0472 -2.14974,0.16536 -2.14974,0.16536 z"
           id="path897"
           inkscape:connector-curvature="0" />
        <path
           style="fill:#d45500;fill-opacity:1;stroke:#690100;stroke-width:0.065;stroke-linecap:butt;stroke-linejoin:miter;stroke-miterlimit:4;stroke-dasharray:none;stroke-opacity:1"
           d="m 83.202009,144.085 1.299292,-0.0945 0.04725,3.87426 -1.252051,0.0945 z"
           id="path899"
           inkscape:connector-curvature="0" />
        <path
           style="fill:#ffff00;stroke:#fb9800;stroke-width:0.065;stroke-linecap:butt;stroke-linejoin:miter;stroke-miterlimit:4;stroke-dasharray:none;stroke-opacity:1"
           d="m 79.871093,139.50204 0.661458,-0.0236 c 0,0 0.685083,0 0.02363,0.33073 -0.661458,0.33073 -1.464659,1.32291 -1.582777,1.5119 -0.118115,0.18899 -1.181174,0.30711 -0.755951,-0.73233 0.425222,-1.03943 1.653645,-1.08668 1.653645,-1.08668 z"
           id="path901"
           inkscape:connector-curvature="0" />
        <path
           style="fill:#008000;stroke:#004e00;stroke-width:0.065;stroke-linecap:butt;stroke-linejoin:miter;stroke-miterlimit:4;stroke-dasharray:none;stroke-opacity:1"
           d="m 81.99721,148.71521 c 0,0 0.637834,-0.23623 0.28348,0.21262 -0.354351,0.44884 -0.921316,1.32291 -0.921316,1.32291 0,0 -0.448847,0.4016 -0.944941,0.28349 -0.496094,-0.11812 0.07087,-0.96857 0.07087,-0.96857 z"
           id="path903"
           inkscape:connector-curvature="0" />
        <path
           style="fill:#ffeeaa;stroke:#e2a78b;stroke-width:0.065;stroke-linecap:butt;stroke-linejoin:miter;stroke-miterlimit:4;stroke-dasharray:none;stroke-dashoffset:0;stroke-opacity:1"
           d="m 83.721725,132.43861 c 0,0 0,-1.06305 0.826823,-0.3071 0.826823,0.75595 0.236236,1.65364 0.236236,1.65364 0,0 -1.133928,0.92132 -1.063059,-1.34654 z"
           id="path905"
           inkscape:connector-curvature="0" />
        <path
           style="fill:#ff0000;stroke:#8c0000;stroke-width:0.065;stroke-linecap:butt;stroke-linejoin:miter;stroke-miterlimit:4;stroke-dasharray:none;stroke-opacity:1"
           d="m 89.911086,132.7221 c 0,0 -0.118113,-0.378 -0.921317,0.0472 -0.803203,0.42525 -0.472471,1.22842 -0.472471,1.22842 0,0 0.07087,0.21262 -0.354352,0.35436 -0.425225,0.14174 -0.09449,0.42519 0.47247,0.14174 0.566962,-0.28345 0.496093,-0.94494 0.826822,-1.13393 0.33073,-0.18899 0.377976,-0.49609 0.448848,-0.63783 z"
           id="path2359"
           inkscape:connector-curvature="0" />
      </g>
      <g
         id="g948">
        <path
           style="fill:#00eaff;fill-opacity:1;stroke:#006bd4;stroke-width:0.065;stroke-linecap:butt;stroke-linejoin:miter;stroke-miterlimit:4;stroke-dasharray:none;stroke-opacity:1"
           d="m 92.462415,136.99794 c 0,0 0.637844,-0.63782 0.921327,-0.82681 0.283482,-0.18899 6.118489,-0.14174 6.118489,-0.14174 l 0.165365,0.3071 0.897694,-0.0472 c 0,0 1.06306,0.51971 0.82682,1.53552 -0.23623,1.01582 -1.34654,1.22843 -1.795385,1.25205 -0.448848,0.0236 -1.393786,-0.14174 -1.393786,-0.14174 l -0.165364,0.44885 -1.582777,-0.30711 -0.04725,1.37016 c 0,0 0.907093,0.96061 1.49768,0.51176 0,0 3.416012,0.40956 3.439642,1.09464 0.0236,0.68509 -0.33073,1.39379 -1.346548,1.70089 -1.015812,0.30711 -0.831282,0.8703 -1.398247,0.13795 -0.566965,-0.73233 -1.24759,0.12191 -1.24759,0.12191 v 0 l -1.228424,0.0709 v 2.12612 c 0,0 0.425225,0 0.377976,0.44885 -0.04725,0.44885 0.212614,1.39378 0.212614,1.39378 l -0.04725,1.20481 c 0,0 -0.732327,1.32291 -1.441032,0.37797 -0.708708,-0.94494 -0.850448,0 -0.850448,0 l -0.02363,0.4016 -1.346557,0.11817 0.259858,-1.41741 -0.472469,-0.0473 0.212619,-2.19699 -0.401601,-0.23623 0.118118,-2.008 0.188995,-2.33873 -0.330729,-0.18899 c 0,0 -1.370177,-1.72454 -0.118124,-4.72471 z"
           id="path2363"
           inkscape:connector-curvature="0"
           sodipodi:nodetypes="ccccccccccccccccccccccccccccccccccc" />
        <path
           style="fill:#d45500;fill-opacity:1;stroke:#690100;stroke-width:0.065;stroke-linecap:butt;stroke-linejoin:miter;stroke-miterlimit:4;stroke-dasharray:none;stroke-opacity:1"
           d="m 92.462426,136.99795 c 0,0 -0.354354,3.33092 -0.0945,3.80339 0.25986,0.47247 0.212614,0.92131 0.212614,0.92131 l 0.330729,0.18899 -0.02363,1.93713 -0.165364,0.4016 -0.118118,2.008 0.4016,0.23623 -0.188989,1.63003 -0.02363,0.56696 0.472469,0.0473 -0.259858,1.41741 h -0.307107 l -0.04725,-0.66146 -0.330729,-0.0709 0.02363,-1.41741 -0.283482,-0.0709 -0.118113,-4.016 c 0,0 0.543341,-0.75595 0.330729,-1.41741 -0.212611,-0.66146 -0.496093,-0.42522 -0.496093,-0.42522 l 0.165364,-0.85045 c 0,0 -0.803198,-0.42522 -0.708705,-1.72452 0.09449,-1.29929 1.039434,-2.50409 1.228424,-2.50409 z"
           id="path2361"
           inkscape:connector-curvature="0" />
        <path
           style="fill:#ff79e3;fill-opacity:1;stroke:#970096;stroke-width:0.065;stroke-linecap:butt;stroke-linejoin:miter;stroke-miterlimit:4;stroke-dasharray:none;stroke-opacity:1"
           d="m 95.155506,149.18768 c 0,0 0.141739,1.58278 0,1.81901 -0.141743,0.23624 -0.519703,1.11024 -0.661459,0.0709 -0.141758,-1.03937 -0.307107,-1.96076 0.165365,-2.07888 0.472469,-0.11811 0.496094,0.18899 0.496094,0.18899 z"
           id="path2368"
           inkscape:connector-curvature="0" />
        <path
           style="fill:#ffff00;fill-opacity:1;stroke:#fb9900;stroke-width:0.065;stroke-linecap:butt;stroke-linejoin:miter;stroke-miterlimit:4;stroke-dasharray:none;stroke-opacity:1"
           d="m 90.525297,138.43899 c 0,0 0.519716,-0.47248 1.01581,-0.14175 0.496093,0.33073 1.13393,0.82683 1.13393,0.82683 0,0 0.708705,1.01581 -0.188989,0.96856 -0.897692,-0.0472 -2.244233,-1.55915 -1.960751,-1.65364 z"
           id="path2370"
           inkscape:connector-curvature="0" />
        <path
           style="fill:#008000;fill-opacity:1;stroke:#004e01;stroke-width:0.065;stroke-linecap:butt;stroke-linejoin:miter;stroke-miterlimit:4;stroke-dasharray:none;stroke-opacity:0.97254902"
           d="m 100.22992,137.1298 c 0,0 1.26461,-0.44873 1.75413,-0.20397 0.48952,0.24477 0.0816,0.77508 0.0816,0.77508 0,0 -0.6935,0.40794 -1.63175,0 -0.938252,-0.40793 -0.20397,-0.57111 -0.20397,-0.57111 z"
           id="path831"
           inkscape:connector-curvature="0" />
        <path
           style="fill:#d45500;fill-opacity:1;stroke:#690100;stroke-width:0.065;stroke-linecap:butt;stroke-linejoin:miter;stroke-miterlimit:4;stroke-dasharray:none;stroke-opacity:1"
           d="m 96.204441,139.00736 0.05268,0.91065 c 0,0 2.092219,0.12794 2.746978,-0.1731 0.654759,-0.30104 1.851391,-0.94075 1.934171,-1.07622 0.0828,-0.13546 -1.030349,0.42749 -2.735334,0.26643 -1.704983,-0.16106 -1.998496,0.0722 -1.998496,0.0722 z"
           id="path833"
           inkscape:connector-curvature="0" />
        <path
           style="fill:#d45500;fill-opacity:1;stroke:#690100;stroke-width:0.065;stroke-linecap:butt;stroke-linejoin:miter;stroke-miterlimit:4;stroke-dasharray:none;stroke-opacity:1"
           d="m 100.96762,143.29255 c 0,0 -1.39867,1.18784 -3.615135,0.72162 -2.756568,0.008 -0.241962,0.21231 0,0 l -1.228423,0.0709 c 0,0 3.609128,1.76146 4.843558,-0.79252 z"
           id="path839"
           inkscape:connector-curvature="0"
           sodipodi:nodetypes="ccccc" />
        <path
           style="fill:#ffeeaa;fill-opacity:1;stroke:#d9a287;stroke-width:0.065;stroke-linecap:butt;stroke-linejoin:miter;stroke-miterlimit:4;stroke-dasharray:none;stroke-opacity:0.93333333"
           d="m 97.179206,142.99458 c 0,0 0.893894,-0.6385 1.106728,-0.1277 0.212831,0.5108 0.936461,1.78779 0.595929,1.95806 -0.340532,0.17026 -0.930998,0.7172 -1.702657,-1.83036 z"
           id="path835"
           inkscape:connector-curvature="0" />
      </g>
      <g
         id="g897">
        <path
           style="fill:#c9865a;fill-opacity:1;stroke:#690100;stroke-width:0.065;stroke-linecap:butt;stroke-linejoin:miter;stroke-miterlimit:4;stroke-dasharray:none;stroke-opacity:1"
           d="m 106.93526,136.00505 -1.91282,0.0455 c 0,0 -2.27715,0.95641 -2.64149,4.28106 -0.36435,3.32464 -0.40989,3.55236 -0.40989,3.55236 0,0 -0.0911,0.36435 -0.63761,0.50098 -0.54651,0.13662 -0.27326,4.00779 -0.0911,4.14442 0.18217,0.13663 0.27326,0.81978 1.54846,1.45738 1.27521,0.6376 2.55042,-0.54652 2.55042,-0.54652 l 0.22771,-2.41378 h 0.3188 c 0,0 -0.0455,-2.27716 0.86532,-2.3227 0.91087,-0.0455 1.09304,1.45738 1.09304,1.45738 l 0.45543,3.68899 c 0,0 1.77618,1.95835 3.82562,-0.3188 2.04945,-2.27716 -4.55431,-13.43522 -5.19191,-13.52631 z"
           id="path844"
           inkscape:connector-curvature="0" />
        <path
           style="fill:#ffffff;stroke:#690100;stroke-width:0.065;stroke-linecap:butt;stroke-linejoin:miter;stroke-miterlimit:4;stroke-dasharray:none;stroke-opacity:1"
           d="m 105.61451,139.35247 c 0,0 -1.11581,1.04749 -0.38712,2.4821 0.72869,1.43461 1.95835,0.50097 1.95835,0.50097 0,0 1.22967,-2.39101 -1.57123,-2.98307 z"
           id="path846"
           inkscape:connector-curvature="0" />
        <path
           style="fill:#d45500;fill-opacity:1;stroke:#690100;stroke-width:0.065;stroke-linecap:butt;stroke-linejoin:miter;stroke-miterlimit:4;stroke-dasharray:none;stroke-opacity:1"
           d="m 105.61451,139.35247 -0.43266,0.68315 0.88809,0.34157 c 0,0 0.52374,0.27326 0.56929,1.04749 0.0455,0.77423 0.54651,0.91086 0.54651,0.91086 0,0 1.11582,-2.52764 -1.57123,-2.98307 z"
           id="path848"
           inkscape:connector-curvature="0" />
        <path
           style="fill:#d45500;fill-opacity:1;stroke:#690100;stroke-width:0.065;stroke-linecap:butt;stroke-linejoin:miter;stroke-miterlimit:4;stroke-dasharray:none;stroke-opacity:1"
           d="m 105.02244,136.05055 -1.16134,-0.0455 c 0,0 -1.79896,1.59401 -1.77619,2.89199 0.0228,1.29798 -0.4782,2.9603 -0.4782,2.9603 0,0 -0.38712,1.61678 -0.36434,1.79895 0.0228,0.18218 -0.45543,0.86532 -0.45543,0.86532 0,0 -0.47821,0.81978 -0.31881,3.46128 0.15941,2.6415 3.30188,2.29993 3.30188,2.29993 0,0 -1.79895,-0.36435 -2.50487,-1.73064 -0.70592,-1.36629 0,-4.12165 0,-4.12165 0,0 0.81977,0.11386 0.81977,-1.13858 0,-1.25244 -0.0683,-5.21478 2.93753,-7.2414 z"
           id="path850"
           inkscape:connector-curvature="0" />
        <path
           style="fill:#d45500;fill-opacity:1;stroke:#690100;stroke-width:0.06408326;stroke-linecap:butt;stroke-linejoin:miter;stroke-miterlimit:4;stroke-dasharray:none;stroke-opacity:1"
           d="m 106.8664,144.65778 c 0,0 0.8852,-0.18221 1.39419,3.55296 0.42016,3.11779 -0.52357,0.90076 -0.50899,1.00212 0,0 -0.48686,-1.13877 -0.8852,-4.55508 z"
           id="path852"
           inkscape:connector-curvature="0"
           sodipodi:nodetypes="cccc" />
        <path
           style="fill:#ff79e3;fill-opacity:1;stroke:#8d357b;stroke-width:0.065;stroke-linecap:butt;stroke-linejoin:miter;stroke-miterlimit:4;stroke-dasharray:none;stroke-opacity:0.92941176"
           d="m 108.48372,135.98228 c 0,0 -1.45738,0.84255 -1.41183,1.86726 0.0455,1.02473 1.34352,-0.4782 1.34352,-0.4782 0,0 0.97918,-1.07026 0.0683,-1.38906 z"
           id="path854"
           inkscape:connector-curvature="0" />
        <path
           style="fill:#ffff00;fill-opacity:1;stroke:#fb9900;stroke-width:0.065;stroke-linecap:butt;stroke-linejoin:miter;stroke-miterlimit:4;stroke-dasharray:none;stroke-opacity:1"
           d="m 110.25991,144.2939 c 0,0 1.50292,-0.0228 2.39101,1.32075 0.88809,1.34352 -2.82367,-1.18412 -2.39101,-1.32075 z"
           id="path856"
           inkscape:connector-curvature="0" />
        <path
           style="fill:#00eaff;fill-opacity:1;stroke:#006bd4;stroke-width:0.065;stroke-linecap:butt;stroke-linejoin:miter;stroke-miterlimit:4;stroke-dasharray:none;stroke-opacity:1"
           d="m 101.78079,145.45392 c 0,0 0.63784,-0.23623 0.28348,0.21262 -0.35435,0.44884 -0.92131,1.32291 -0.92131,1.32291 0,0 -0.44885,0.4016 -0.94495,0.28349 -0.49609,-0.11812 0.0709,-0.96857 0.0709,-0.96857 z"
           id="path903-5"
           inkscape:connector-curvature="0" />
      </g>
      <g
         id="g974">
        <path
           style="fill:#ffeeaa;fill-opacity:0.9805825;stroke:#9e833b;stroke-width:0.065;stroke-linecap:butt;stroke-linejoin:miter;stroke-miterlimit:4;stroke-dasharray:none;stroke-opacity:1"
           d="m 120.14276,136.09614 c 0,0 -7.4463,-0.63761 -8.10667,0.18217 -0.66038,0.81978 -2.98308,4.09888 0.797,6.08 3.78008,1.98113 3.00585,0.7287 5.41963,2.11776 2.41379,1.38907 -0.52374,3.34742 -0.52374,3.34742 0,0 -4.55432,-0.52375 -4.89589,-0.29603 -0.34157,0.22772 -0.97917,1.77618 0.34157,2.27716 1.32076,0.50097 4.44046,0.52374 4.44046,0.52374 0,0 1.25244,-0.34157 1.09304,0.0455 -0.15941,0.38711 0.38711,0.91086 0.70591,0.75146 0.31881,-0.1594 0.13663,0.25048 0.59206,-0.68315 0.45543,-0.93363 1.27521,-0.25049 1.27521,-0.25049 0,0 1.45738,-0.45543 1.95836,-1.66232 0.50097,-1.20689 0.34157,-3.66622 -1.89004,-5.05529 -2.23162,-1.38906 -5.1236,-2.77813 -5.21469,-3.4385 -0.0911,-0.66038 3.71176,-0.13663 3.71176,-0.13663 0,0 0.70592,0.72869 1.22967,0.11385 0.52374,-0.61483 0.88809,-2.29992 -0.93364,-3.9167 z"
           id="path877"
           inkscape:connector-curvature="0" />
        <path
           style="fill:#d45500;fill-opacity:1;stroke:#690100;stroke-width:0.065;stroke-linecap:butt;stroke-linejoin:miter;stroke-miterlimit:4;stroke-dasharray:none;stroke-opacity:1"
           d="m 112.03609,136.27831 c 0,0 -1.34352,1.98112 -1.22967,3.14247 0.11386,1.16135 0.77424,2.86922 3.18802,3.34742 2.41379,0.47821 4.94143,1.89004 5.19192,2.82368 0.25048,0.93363 1.13858,2.36824 -1.11581,2.23161 -2.25438,-0.13663 -2.70982,-0.20494 -2.70982,-0.20494 0,0 2.11776,0.3188 2.41379,-0.29603 0.29603,-0.61484 0.66038,-1.61678 -1.89004,-2.77813 -2.55041,-1.16135 -4.41768,-1.41184 -5.69289,-4.07611 -1.27521,-2.66428 1.8445,-4.18997 1.8445,-4.18997 z"
           id="path873"
           inkscape:connector-curvature="0" />
        <path
           style="fill:#d45500;fill-opacity:1;stroke:#690100;stroke-width:0.065;stroke-linecap:butt;stroke-linejoin:miter;stroke-miterlimit:4;stroke-dasharray:none;stroke-opacity:1"
           d="m 116.04388,139.37524 c 0,0 3.25634,-0.0683 3.59791,0.20494 0.34157,0.27326 0.4782,0.7287 0.4782,0.7287 0,0 -2.07221,-0.86532 -2.84644,-0.40987 -1.63939,0.39576 -2.1254,-0.58552 -1.22967,-0.52375 z"
           id="path875"
           inkscape:connector-curvature="0"
           sodipodi:nodetypes="cccccc" />
        <path
           style="fill:#008000;fill-opacity:1;stroke:#004f01;stroke-width:0.065;stroke-linecap:butt;stroke-linejoin:miter;stroke-miterlimit:4;stroke-dasharray:none;stroke-opacity:0.98823529"
           d="m 112.94695,136.6882 0.18217,-0.68315 0.40989,-0.59206 0.77423,-0.27326 c 0,0 0.86532,0.0455 0.27326,0.77423 -0.59206,0.72869 -1.63955,0.77424 -1.63955,0.77424 z"
           id="path956"
           inkscape:connector-curvature="0" />
        <path
           style="fill:#ffff00;fill-opacity:1;stroke:#fb9900;stroke-width:0.065;stroke-linecap:butt;stroke-linejoin:miter;stroke-miterlimit:4;stroke-dasharray:none;stroke-opacity:1"
           d="m 121.50906,144.84042 c 0,0 0.1594,-1.70787 1.20689,-1.70787 1.04749,0 -1.20689,1.70787 -1.20689,1.70787 z"
           id="path958"
           inkscape:connector-curvature="0" />
        <path
           style="fill:#00eaff;fill-opacity:1;stroke:#006bd4;stroke-width:0.065;stroke-linecap:butt;stroke-linejoin:miter;stroke-miterlimit:4;stroke-dasharray:none;stroke-opacity:1"
           d="m 121.62292,149.4175 c 0,0 -0.79701,-0.52375 -0.95641,0.38712 -0.1594,0.91086 1.50292,1.61678 1.50292,1.61678 0,0 0.22772,0.20494 0.29603,-0.22772 0.0683,-0.43266 -0.84254,-1.77618 -0.84254,-1.77618 z"
           id="path960"
           inkscape:connector-curvature="0" />
        <path
           style="fill:#d38d5f;stroke:#000000;stroke-width:0;stroke-linecap:butt;stroke-linejoin:miter;stroke-miterlimit:4;stroke-dasharray:none;stroke-opacity:1"
           d="m 113.52322,140.33585 -0.53722,0.0247 0.53318,0.0319 -0.53728,0.22616 0.50638,-0.0388 -0.53247,0.25395 0.58113,-0.0726 -0.50685,0.3239 0.49242,-0.18553 -0.17564,0.48654 0.30039,-0.39311 -0.0396,0.38575 0.18642,-0.3692 0.099,0.53363 0.0477,-0.53385 0.16578,0.45893 -0.0831,-0.49105 0.35335,0.39116 -0.22373,-0.39935 0.3397,0.0287 -0.30693,-0.11474 0.21593,-0.14853 -0.31628,0.12096 -0.45542,0.0455 -0.0228,-0.54652 z"
           id="path964"
           inkscape:connector-curvature="0"
           sodipodi:nodetypes="cccccccccccccccccccccccccc" />
        <path
           style="fill:#ff79e3;fill-opacity:1;stroke:#ce5cb6;stroke-width:0.065;stroke-linecap:butt;stroke-linejoin:miter;stroke-miterlimit:4;stroke-dasharray:none;stroke-opacity:1"
           d="m 113.6301,140.90094 -0.0228,-0.54652 0.56929,-1.09304 c 0,0 0.91086,-0.66037 0.61483,0.22772 -0.29603,0.88809 -0.70592,1.36629 -0.70592,1.36629 z"
           id="path962"
           inkscape:connector-curvature="0" />
      </g>
      <g
         id="g994">
        <path
           style="fill:#aad400;fill-opacity:0.96601939;stroke:#008000;stroke-width:0.065;stroke-linecap:butt;stroke-linejoin:miter;stroke-miterlimit:4;stroke-dasharray:none;stroke-opacity:1"
           d="m 133.97031,138.51558 c 0,0 -0.13902,1.11217 0.60243,1.01948 0.74145,-0.0927 0.64876,-1.25119 0.64876,-1.25119 0,0 0.41707,-1.99264 -3.98528,-2.68775 -4.40234,-0.6951 -6.39498,0.46341 -6.39498,0.46341 0,0 -2.40971,0.74145 -2.22434,2.31702 0.18536,1.57558 1.52923,2.03898 1.52923,2.03898 0,0 1.11217,-0.18536 1.52924,-0.13902 0.41706,0.0463 1.25119,0.46341 1.57557,2.08532 0.32439,1.62192 0.18536,6.16329 0.18536,6.16329 0,0 0.50975,1.66825 1.43656,1.80728 0.92681,0.13902 1.99264,-0.23171 2.4097,-0.92681 0.41707,-0.69511 -0.41706,-7.0901 -0.41706,-7.0901 0,0 -0.55609,-2.13166 1.01949,-2.08532 1.57558,0.0463 1.99264,-0.55609 2.08532,-1.71459 z"
           id="path976"
           inkscape:connector-curvature="0" />
        <path
           style="fill:#d45500;fill-opacity:1;stroke:#74100a;stroke-width:0.065;stroke-linecap:butt;stroke-linejoin:miter;stroke-miterlimit:4;stroke-dasharray:none;stroke-opacity:1"
           d="m 123.72907,136.61562 c 0,0 -1.43656,-0.0464 -1.89996,1.20485 -0.46341,1.25119 0.2317,2.6414 0.74144,3.05847 0.50975,0.41706 1.34388,0.78779 2.36337,0.60242 1.01949,-0.18536 1.11217,1.89996 1.11217,1.89996 l 0.13902,4.58771 c 0,0 -0.60242,1.80728 0.78779,2.178 1.39021,0.37073 1.99264,0.32439 1.99264,0.32439 0,0 -1.11218,-0.64877 -1.52924,-1.9463 -0.41706,-1.29754 0.32439,-4.91209 -0.0463,-5.97792 -0.35245,-1.12068 -0.0342,-2.79368 -2.82678,-2.22435 -1.97864,0.40339 -1.20099,-4.27007 -0.41706,-3.79991 z"
           id="path978"
           inkscape:connector-curvature="0"
           sodipodi:nodetypes="ccccccccccscc" />
        <path
           style="fill:#ffff00;fill-opacity:1;stroke:#fcc200;stroke-width:0.065;stroke-linecap:butt;stroke-linejoin:miter;stroke-miterlimit:4;stroke-dasharray:none;stroke-opacity:1"
           d="m 123.91519,135.72126 c 0,0 -1.44837,-0.17927 -0.81725,0.35754 0.63113,0.53682 1.22587,0.99603 1.22587,0.99603 0,0 1.30249,0.84278 0.94495,0.22985 -0.35755,-0.61294 -0.61294,-1.30249 -1.35357,-1.58342 z"
           id="path980"
           inkscape:connector-curvature="0" />
        <path
           style="fill:#ffeeaa;fill-opacity:1;stroke:#f0d09c;stroke-width:0.065;stroke-linecap:butt;stroke-linejoin:miter;stroke-miterlimit:4;stroke-dasharray:none;stroke-opacity:1"
           d="m 133.59447,135.90003 c 0,0 0.22985,-1.09817 -0.76617,-0.61293 -0.99602,0.48524 -1.02156,1.48126 -1.02156,1.48126 0,0 -0.0255,0.28093 0.53632,0.15323 0.56186,-0.12769 1.25141,-1.02156 1.25141,-1.02156 z"
           id="path982"
           inkscape:connector-curvature="0" />
        <path
           style="fill:#ff0000;fill-opacity:1;stroke:#920000;stroke-width:0.065;stroke-linecap:butt;stroke-linejoin:miter;stroke-miterlimit:4;stroke-dasharray:none;stroke-opacity:1"
           d="m 127.4363,148.52512 c 0,0 0.0543,0.16995 -0.35428,0.3998 -0.40862,0.22985 -1.32802,0.71509 -1.32802,0.71509 0,0 -0.48524,0.48524 0.15323,0.51078 0.63848,0.0255 1.55788,-0.38308 1.91543,-0.99602 0.35754,-0.61294 0.0701,-0.9273 -0.38636,-0.62965 z"
           id="path984"
           inkscape:connector-curvature="0" />
        <path
           style="fill:#00eaff;fill-opacity:1;stroke:#009ce5;stroke-width:0.065;stroke-linecap:butt;stroke-linejoin:miter;stroke-miterlimit:4;stroke-dasharray:none;stroke-opacity:1"
           d="m 130.16962,146.98781 c 0,0 -0.20367,-1.16379 0.5237,-0.98922 0.72737,0.17457 0.90194,-0.87284 0.90194,-0.87284 0,0 0.75646,-0.11638 0.46551,0.78555 -0.29095,0.90194 -0.93103,1.04741 -0.93103,1.04741 0,0 -0.43642,-0.66918 -0.96012,0.0291 z"
           id="path986"
           inkscape:connector-curvature="0" />
      </g>
    </g>
  </g>
</svg>
