<?xml version="1.0" encoding="UTF-8" standalone="no"?>
<!-- Created with Inkscape (http://www.inkscape.org/) -->

<svg
   xmlns:dc="http://purl.org/dc/elements/1.1/"
   xmlns:cc="http://creativecommons.org/ns#"
   xmlns:rdf="http://www.w3.org/1999/02/22-rdf-syntax-ns#"
   xmlns:svg="http://www.w3.org/2000/svg"
   xmlns="http://www.w3.org/2000/svg"
   xmlns:xlink="http://www.w3.org/1999/xlink"
   xmlns:sodipodi="http://sodipodi.sourceforge.net/DTD/sodipodi-0.dtd"
   xmlns:inkscape="http://www.inkscape.org/namespaces/inkscape"
   version="1.1"
   id="svg3713"
   width="116"
   height="127"
   viewBox="0 0 116 127"
   sodipodi:docname="Icona.svg"
   inkscape:version="0.92.4 (5da689c313, 2019-01-14)">
  <metadata
     id="metadata3719">
    <rdf:RDF>
      <cc:Work
         rdf:about="">
        <dc:format>image/svg+xml</dc:format>
        <dc:type
           rdf:resource="http://purl.org/dc/dcmitype/StillImage" />
        <dc:title></dc:title>
      </cc:Work>
    </rdf:RDF>
  </metadata>
  <defs
     id="defs3717">
    <linearGradient
       inkscape:collect="always"
       id="linearGradient3776">
      <stop
         style="stop-color:#ff2fd4;stop-opacity:1"
         offset="0"
         id="stop3772" />
      <stop
         style="stop-color:#56afc4;stop-opacity:1"
         offset="1"
         id="stop3774" />
    </linearGradient>
    <linearGradient
       inkscape:collect="always"
       xlink:href="#linearGradient3776"
       id="linearGradient3778"
       x1="85.736694"
       y1="62.830059"
       x2="26.516504"
       y2="63.006836"
       gradientUnits="userSpaceOnUse"
       gradientTransform="matrix(1.0270459,0,0,1.0270459,-1.1692896,-11.392663)" />
  </defs>
  <sodipodi:namedview
     pagecolor="#ffffff"
     bordercolor="#666666"
     borderopacity="1"
     objecttolerance="10"
     gridtolerance="10"
     guidetolerance="10"
     inkscape:pageopacity="0"
     inkscape:pageshadow="2"
     inkscape:window-width="1920"
     inkscape:window-height="1005"
     id="namedview3715"
     showgrid="false"
     inkscape:zoom="8"
     inkscape:cx="24.633449"
     inkscape:cy="68.796637"
     inkscape:window-x="-9"
     inkscape:window-y="-9"
     inkscape:window-maximized="1"
     inkscape:current-layer="svg3713" />
  <g
     id="g4696">
    <rect
       y="22.016092"
       x="21.847088"
       height="67.528694"
       width="67.528694"
       id="rect4687"
       style="fill:#ffffff;fill-opacity:0.00371747;stroke-width:1.20886075" />
    <g
       transform="translate(-0.53033004,3.7123106)"
       id="g4685">
      <circle
         style="fill:#ffe680;fill-opacity:1;stroke-width:0.95324677"
         id="path4671"
         cx="55.419498"
         cy="50.897633"
         r="32.438522" />
      <ellipse
         style="fill:#ffffff;fill-opacity:1;stroke-width:0.86538464"
         id="path4677"
         cx="54.5951"
         cy="50.986019"
         rx="8.3374004"
         ry="7.9549518" />
      <path
         inkscape:connector-curvature="0"
         id="path3763"
         d="m 33.57353,85.203404 c -2.151076,-0.885293 -3.487612,-3.276358 -3.487612,-6.239355 0,-2.374202 -0.228343,-2.786612 -1.931535,-3.488629 -3.102531,-1.278774 -3.573174,-2.364424 -4.047588,-9.336597 -0.244899,-3.599292 -0.644122,-9.182078 -0.887162,-12.406185 -0.738312,-9.79438 1.775742,-17.406993 8.040784,-24.347725 6.50955,-7.211609 14.948817,-10.92757 24.817477,-10.92757 9.746398,0 17.508143,3.221935 24.02138,9.971376 6.491269,6.726684 9.210137,13.539699 9.223468,23.112414 0.01366,9.824238 -2.545492,15.015739 -6.220807,12.61945 -1.849627,-1.205954 -1.876567,-1.480287 -0.607374,-6.185509 3.38844,-12.561889 -2.894626,-25.520454 -15.18249,-31.313254 -4.023206,-1.896636 -4.86032,-2.050076 -11.184592,-2.050076 -6.312296,0 -7.166214,0.155726 -11.147988,2.033029 -7.478178,3.525763 -12.346879,8.907651 -14.911577,16.483362 -1.170124,3.456344 -1.340203,5.02991 -1.009494,9.339837 0.218751,2.850753 0.570473,7.61211 0.781603,10.580796 0.38203,5.371648 0.391746,5.39564 2.019038,4.989228 2.116937,-0.528693 4.086205,1.194454 4.086205,3.575516 0,1.587823 0.222109,1.766499 2.089751,1.68113 2.744421,-0.125453 4.08907,2.328694 3.48223,6.355474 -0.646484,4.289827 -4.48816,6.975459 -7.943717,5.553288 z M 49.617086,83.64175 c -5.154138,-1.131137 -6.510393,-2.026639 -6.510393,-4.29868 0,-2.345475 1.897642,-3.016639 5.620755,-1.98795 7.073061,1.954273 16.998371,0.272229 22.966965,-3.892206 2.170682,-1.514534 3.322884,-1.913839 4.720036,-1.635787 1.777909,0.353828 1.848354,0.271469 1.848354,-2.161007 0,-2.695009 1.29911,-4.564901 3.171487,-4.564901 2.112459,0 2.687861,1.420898 2.687861,6.637336 0,4.601597 -0.159171,5.240923 -1.682219,6.756463 -1.508751,1.501325 -2.02557,1.633475 -5.012056,1.281506 -2.740815,-0.323016 -3.913609,-0.10823 -6.629889,1.214174 -3.758946,1.830021 -11.143314,3.543617 -14.99603,3.479929 -1.432287,-0.02372 -4.215479,-0.396665 -6.184871,-0.828877 z m 3.89308,-8.847528 c -1.009227,-1.876454 -0.257327,-3.590491 2.252003,-5.13371 2.352285,-1.446635 3.928769,-1.224433 4.963569,0.699583 0.813729,1.512962 -0.0115,3.218074 -2.270285,4.690775 -2.203177,1.436468 -4.087273,1.338693 -4.945287,-0.256648 z M 44.01796,71.731571 c -2.131151,-1.415988 -2.899874,-5.904733 -1.245242,-7.271199 2.243038,-1.852377 5.542289,0.976835 5.542289,4.752667 0,2.453725 -2.334917,3.822233 -4.297047,2.518532 z m 19.908824,-2.119997 c -0.983849,-1.829282 -0.207166,-3.782816 1.692602,-4.25727 1.938015,-0.484016 3.528868,0.693461 3.528868,2.611922 0,2.936704 -3.870905,4.156475 -5.22147,1.645348 z M 53.653531,66.915147 c -2.104479,-2.094106 0.25634,-5.635155 3.14806,-4.721879 1.58692,0.501187 2.354421,3.238116 1.271986,4.535942 -0.967528,1.160059 -3.340785,1.259888 -4.420046,0.185937 z M 73.42554,64.321478 c -0.856258,-1.216458 -0.874283,-1.623629 -0.12189,-2.753284 1.688238,-2.534746 4.959153,-1.73312 4.959153,1.215374 0,2.994269 -3.11503,3.984629 -4.837263,1.53791 z M 58.741794,61.177051 c -2.606858,-1.446204 -4.376366,-1.561551 -7.889192,-0.514266 -3.666175,1.093001 -4.757637,-2.43e-4 -4.197219,-4.204072 0.305423,-2.291038 0.104677,-4.080077 -0.711137,-6.337598 l -1.136693,-3.14545 3.544089,-3.452029 c 1.949242,-1.898616 3.921848,-3.942374 4.383546,-4.541685 1.332962,-1.730227 3.325852,-1.321556 4.561891,0.935479 2.051391,3.745906 4.107907,5.717444 6.683851,6.407654 3.250918,0.87107 3.836519,2.725336 1.96061,6.208141 -0.821165,1.52455 -1.350555,3.708459 -1.350555,5.57142 0,2.36626 -0.286762,3.216716 -1.259282,3.734625 -1.633763,0.870058 -1.896132,0.832204 -4.589909,-0.662219 z m 0.333728,-8.442216 c 0.305341,-0.95731 0.0418,-1.624939 -0.900688,-2.281841 -0.732777,-0.510728 -1.786639,-1.380674 -2.341911,-1.933214 -1.665961,-1.657758 -3.301111,-0.861326 -3.189019,1.553275 0.161544,3.479855 0.617306,4.015029 3.419272,4.015029 2.045536,0 2.670227,-0.280629 3.012346,-1.353249 z m -26.548213,8.427506 c -2.317478,-1.343157 -0.995803,-5.130763 1.790356,-5.130763 2.741628,0 3.873032,2.855745 1.906619,4.812464 -1.176985,1.171188 -2.089803,1.249779 -3.696975,0.318299 z m 35.094252,-0.484993 c -1.40389,-1.543646 -1.356009,-2.563615 0.242855,-5.173156 1.035581,-1.690201 1.679015,-2.103678 3.024331,-1.943495 3.246359,0.386532 3.682052,3.846179 0.863499,6.856636 -1.642862,1.754718 -2.710198,1.821903 -4.130685,0.260015 z M 39.634857,54.694006 c -1.812808,-2.575408 0.338411,-5.158608 3.471836,-4.168996 0.883598,0.279059 1.302078,0.980191 1.302078,2.1815 0,3.260149 -2.999189,4.508784 -4.773914,1.987496 z m 34.504696,-2.333474 c -0.238717,-0.237537 -0.43402,-1.247616 -0.43402,-2.244617 0,-2.524665 2.116999,-3.620616 4.275408,-2.21334 1.750312,1.141202 1.909668,1.77806 0.909993,3.636771 -0.658141,1.223692 -3.801004,1.766877 -4.751381,0.821186 z M 32.169239,44.888875 C 31.089968,43.814923 31.1903,41.45336 32.3561,40.490601 c 1.304246,-1.077101 4.054736,-0.313384 4.5584,1.265716 0.917799,2.87748 -2.640792,5.226661 -4.745261,3.132558 z m 7.161427,-0.647832 c -1.783855,-1.775074 -0.251626,-6.778976 2.268498,-7.408373 3.322833,-0.829868 4.655681,3.260131 2.111319,6.478826 -1.446543,1.829919 -3.118399,2.184744 -4.379817,0.929547 z m 30.189615,-0.240624 c -1.926337,-1.916846 -0.721859,-4.441091 2.56366,-5.372702 2.994085,-0.848974 4.876784,0.122304 4.876784,2.515915 0,1.666909 -0.373588,2.152755 -2.257725,2.936119 -2.881346,1.197972 -3.914996,1.182149 -5.182719,-0.07933 z m -8.998288,-2.273028 c -2.317478,-1.343156 -0.995813,-5.130762 1.790357,-5.130762 2.741627,0 3.873021,2.855744 1.906608,4.812463 -1.176985,1.171189 -2.089792,1.24978 -3.696965,0.318299 z M 46.96401,35.118405 c -0.564012,-0.434053 -1.536974,-1.57133 -2.162147,-2.527281 -2.43565,-3.724378 1.890976,-6.089372 5.170335,-2.826174 3.345017,3.328534 0.632712,8.155417 -3.008188,5.353455 z M 65.249044,33.6898 c -0.450986,-0.54073 -0.6281,-1.658577 -0.403722,-2.548149 0.73214,-2.902731 4.62372,-2.882191 5.357811,0.02827 0.483532,1.91705 -0.722588,3.483206 -2.682469,3.483206 -0.807494,0 -1.829723,-0.4335 -2.27162,-0.963334 z M 54.181371,30.450641 c -1.082424,-1.297827 -0.314933,-4.034758 1.271986,-4.535945 2.89173,-0.913276 5.252539,2.627779 3.14807,4.721882 -1.079271,1.073951 -3.452527,0.974116 -4.420056,-0.185937 z"
         style="fill:url(#linearGradient3778);fill-opacity:1;stroke-width:0.64943337" />
    </g>
  </g>
</svg>
